<svg width="80" height="80" viewBox="0 0 80 80" fill="none" xmlns="http://www.w3.org/2000/svg">
<g clip-path="url(#clip0)">
<path d="M41.2312 75.1333L41.2645 75.1566C44.1447 76.9905 47.5643 77.7868 50.9583 77.4141C54.3524 77.0414 57.5177 75.5218 59.9312 73.1066L62.0279 71.01C62.4925 70.5456 62.8611 69.9943 63.1125 69.3874C63.364 68.7806 63.4935 68.1302 63.4935 67.4733C63.4935 66.8164 63.364 66.166 63.1125 65.5591C62.8611 64.9523 62.4925 64.401 62.0279 63.9366L53.1845 55.1C52.7202 54.6353 52.1689 54.2667 51.562 54.0153C50.9552 53.7638 50.3047 53.6344 49.6479 53.6344C48.991 53.6344 48.3405 53.7638 47.7337 54.0153C47.1269 54.2667 46.5755 54.6353 46.1112 55.1C45.1736 56.0373 43.902 56.5639 42.5762 56.5639C41.2504 56.5639 39.9788 56.0373 39.0412 55.1L24.9012 40.9566C23.9638 40.019 23.4373 38.7474 23.4373 37.4216C23.4373 36.0958 23.9638 34.8243 24.9012 33.8866C25.3658 33.4223 25.7344 32.871 25.9859 32.2641C26.2374 31.6573 26.3668 31.0068 26.3668 30.35C26.3668 29.6931 26.2374 29.0426 25.9859 28.4358C25.7344 27.829 25.3658 27.2776 24.9012 26.8133L16.0612 17.9766C15.1236 17.0393 13.852 16.5127 12.5262 16.5127C11.2004 16.5127 9.92884 17.0393 8.9912 17.9766L6.8912 20.0733C4.4765 22.4872 2.9576 25.6527 2.58547 29.0467C2.21334 32.4408 3.01026 35.8602 4.84454 38.74L4.86454 38.7733C14.5518 53.1059 26.8968 65.4487 41.2312 75.1333V75.1333Z" stroke="#00182E" stroke-width="5" stroke-linecap="round" stroke-linejoin="round"/>
<path d="M77.5 7.5L57.5 27.5L32.5 2.5" stroke="#00182E" stroke-width="5" stroke-linecap="round" stroke-linejoin="round"/>
<path d="M32.5 17.5V2.5H47.5" stroke="#00182E" stroke-width="5" stroke-linecap="round" stroke-linejoin="round"/>
</g>
<defs>
<clipPath id="clip0">
<rect width="80" height="80" fill="white"/>
</clipPath>
</defs>
</svg>
