<svg width="18" height="18" viewBox="0 0 18 18" fill="none" xmlns="http://www.w3.org/2000/svg">
<path d="M4.2 7.93333C5.44444 10.4222 7.57778 12.4667 10.0667 13.8L12.0222 11.8444C12.2889 11.5778 12.6444 11.4889 12.9111 11.6667C13.8889 12.0222 14.9555 12.2 16.1111 12.2C16.6444 12.2 17 12.5556 17 13.0889V16.1111C17 16.6444 16.6444 17 16.1111 17C7.75556 17 1 10.2444 1 1.88889C1 1.35556 1.35556 1 1.88889 1H5C5.53333 1 5.88889 1.35556 5.88889 1.88889C5.88889 2.95556 6.06667 4.02222 6.42222 5.08889C6.51111 5.35556 6.42222 5.71111 6.24444 5.97778L4.2 7.93333Z" fill="#696969"/>
</svg>
