<svg width="20" height="20" viewBox="0 0 20 20" fill="none" xmlns="http://www.w3.org/2000/svg">
<g clip-path="url(#clip0)">
<path fill-rule="evenodd" clip-rule="evenodd" d="M6.84437 4.13893C4.24581 5.24329 3.03453 8.2451 4.13889 10.8437C5.24325 13.4422 8.24505 14.6535 10.8436 13.5491C13.4422 12.4448 14.6535 9.44297 13.5491 6.84442C12.4447 4.24586 9.44293 3.03457 6.84437 4.13893ZM1.83805 11.8215C0.193647 7.95222 1.99726 3.4825 5.86654 1.8381C9.73581 0.193696 14.2055 1.99731 15.8499 5.86659C17.4943 9.73586 15.6907 14.2056 11.8214 15.85C7.95217 17.4944 3.48245 15.6908 1.83805 11.8215Z" fill="white"/>
<path fill-rule="evenodd" clip-rule="evenodd" d="M12.4587 12.4586C12.9469 11.9705 13.7384 11.9706 14.2265 12.4588L19.161 17.394C19.6491 17.8821 19.649 18.6736 19.1608 19.1617C18.6726 19.6498 17.8812 19.6498 17.3931 19.1616L12.4586 14.2264C11.9705 13.7382 11.9705 12.9468 12.4587 12.4586Z" fill="white"/>
</g>
<defs>
<clipPath id="clip0">
<rect width="20" height="20" fill="white"/>
</clipPath>
</defs>
</svg>
