<svg width="120" height="120" viewBox="0 0 120 120" fill="none" xmlns="http://www.w3.org/2000/svg">
<path d="M59.2331 9.3949C31.2847 9.3949 8.62842 32.0521 8.62842 60.0001C8.62842 87.9476 31.2847 110.604 59.2331 110.604C87.1797 110.604 109.836 87.9476 109.836 60.0001C109.836 32.0521 87.1797 9.3949 59.2331 9.3949Z" fill="#EDF3FC"/>
<path d="M60.0019 0C26.9172 0 0 26.9155 0 60C0 93.0835 26.9172 120 60.0019 120C93.0849 120 120 93.0835 120 60C120 26.9155 93.0849 0 60.0019 0ZM60.0019 118.077C27.9769 118.077 1.92329 92.0226 1.92329 60C1.92329 27.9755 27.9772 1.92188 60.0019 1.92188C92.0249 1.92188 118.077 27.9758 118.077 60C118.077 92.0226 92.0247 118.077 60.0019 118.077Z" fill="#EDF3FC"/>
<path d="M64.8505 25.4203C61.8735 24.6754 59.5537 22.3532 58.8032 19.38L58.6778 18.8721L58.5515 19.38C58.1848 20.8399 57.4286 22.1729 56.3636 23.2367C55.2986 24.3006 53.9647 25.0552 52.5044 25.4203L52 25.5489L52.5044 25.6781C53.9649 26.043 55.299 26.7977 56.364 27.8617C57.4291 28.9256 58.1851 30.2589 58.5515 31.7191L58.6778 32.227L58.8032 31.7191C59.5537 28.7449 61.8735 26.4213 64.8505 25.6781L65.3549 25.5489L64.8505 25.4203Z" fill="#F4434D"/>
<path d="M68.2088 20.4524C67.6622 20.3152 67.1631 20.0323 66.7646 19.6339C66.3661 19.2355 66.0832 18.7365 65.9459 18.1901L65.8989 18L65.8507 18.1901C65.7139 18.7366 65.4311 19.2358 65.0327 19.6342C64.6342 20.0327 64.1351 20.3155 63.5884 20.4524L63.3989 20.5L63.5884 20.5476C64.135 20.6842 64.6342 20.9668 65.0327 21.365C65.4311 21.7633 65.7139 22.2623 65.8507 22.8087L65.8989 23L65.9459 22.8087C66.0832 22.2624 66.3661 21.7635 66.7647 21.3653C67.1632 20.9671 67.6623 20.6845 68.2088 20.5476L68.3989 20.5L68.2088 20.4524Z" fill="#F4434D"/>
<path d="M61.2831 62.1698H59.0566V82.2075H61.2831V62.1698Z" fill="#424A60"/>
<path d="M80.9947 38.4657L79.4204 36.8914L62.7226 53.5892L64.2969 55.1635L80.9947 38.4657Z" fill="#424A60"/>
<path d="M58.7305 60.7303L57.1562 59.156L34.8925 81.4197L36.4668 82.994L58.7305 60.7303Z" fill="#424A60"/>
<path d="M56.5039 52.4766L44.259 40.2317L42.6847 41.806L54.9296 54.0509L56.5039 52.4766Z" fill="#424A60"/>
<path d="M79.8809 75.8533L63.1831 59.1555L61.6088 60.7298L78.3066 77.4276L79.8809 75.8533Z" fill="#424A60"/>
<path d="M82.434 42.1321C85.508 42.1321 88 39.6401 88 36.566C88 33.492 85.508 31 82.434 31C79.3599 31 76.8679 33.492 76.8679 36.566C76.8679 39.6401 79.3599 42.1321 82.434 42.1321Z" fill="#FF7D85"/>
<path d="M60.1698 90C63.2438 90 65.7358 87.508 65.7358 84.434C65.7358 81.3599 63.2438 78.8679 60.1698 78.8679C57.0958 78.8679 54.6038 81.3599 54.6038 84.434C54.6038 87.508 57.0958 90 60.1698 90Z" fill="#0F263A"/>
<path d="M34.566 87.7736C37.6401 87.7736 40.1321 85.2816 40.1321 82.2075C40.1321 79.1335 37.6401 76.6415 34.566 76.6415C31.492 76.6415 29 79.1335 29 82.2075C29 85.2816 31.492 87.7736 34.566 87.7736Z" fill="#F4434D"/>
<path d="M42.3584 43.2453C44.2028 43.2453 45.698 41.7501 45.698 39.9057C45.698 38.0612 44.2028 36.566 42.3584 36.566C40.514 36.566 39.0188 38.0612 39.0188 39.9057C39.0188 41.7501 40.514 43.2453 42.3584 43.2453Z" fill="#D75A4A"/>
<path d="M77.9812 78.868C79.8256 78.868 81.3208 77.3728 81.3208 75.5283C81.3208 73.6839 79.8256 72.1887 77.9812 72.1887C76.1368 72.1887 74.6416 73.6839 74.6416 75.5283C74.6416 77.3728 76.1368 78.868 77.9812 78.868Z" fill="#3170A7"/>
<path d="M60.1699 65.5095C64.4735 65.5095 67.9623 62.0207 67.9623 57.717C67.9623 53.4134 64.4735 49.9246 60.1699 49.9246C55.8662 49.9246 52.3774 53.4134 52.3774 57.717C52.3774 62.0207 55.8662 65.5095 60.1699 65.5095Z" fill="#FFD03D"/>
<path d="M80.6979 93.9226C79.8233 93.7035 79.0245 93.2513 78.3865 92.6141C77.7486 91.9769 77.2955 91.1785 77.0754 90.3042L77.0004 90L76.9248 90.3042C76.7051 91.1787 76.2521 91.9772 75.6141 92.6145C74.9761 93.2518 74.1771 93.7039 73.3023 93.9226L73 93.9997L73.3023 94.077C74.1772 94.2956 74.9764 94.7477 75.6144 95.385C76.2524 96.0224 76.7054 96.8211 76.9248 97.6958L77.0004 98L77.0754 97.6958C77.2952 96.8213 77.7483 96.0228 78.3863 95.3855C79.0242 94.7482 79.8232 94.296 80.6979 94.077L81 93.9997L80.6979 93.9226Z" fill="#00182E"/>
<path d="M99.5655 61.3648C98.5922 61.121 97.7034 60.6178 96.9936 59.9087C96.2837 59.1997 95.7795 58.3114 95.5347 57.3384L95.4512 57L95.3671 57.3384C95.1227 58.3116 94.6186 59.2001 93.9087 59.9092C93.1988 60.6183 92.3098 61.1214 91.3363 61.3648L91 61.4505L91.3363 61.5366C92.3099 61.7798 93.1991 62.2828 93.9091 62.9921C94.619 63.7013 95.1229 64.59 95.3671 65.5634L95.4512 65.9018L95.5347 65.5634C95.7793 64.5902 96.2834 63.7017 96.9933 62.9926C97.7031 62.2834 98.5921 61.7802 99.5655 61.5366L99.9016 61.4505L99.5655 61.3648Z" fill="#00182E"/>
<path d="M33.3728 56.798C32.0803 56.474 30.9 55.8053 29.9579 54.8631C29.0157 53.9209 28.3469 52.7406 28.023 51.4481L27.9114 51L27.7984 51.4481C27.4749 52.7409 26.8063 53.9215 25.8639 54.8638C24.9216 55.806 23.7409 56.4746 22.4481 56.798L22 56.9123L22.4481 57.0244C23.7408 57.3475 24.9215 58.0157 25.8639 58.9578C26.8062 59.8998 27.4749 61.0802 27.7984 62.3728L27.9114 62.8228L28.023 62.3728C28.347 61.0805 29.0157 59.9004 29.9579 58.9585C30.9001 58.0165 32.0804 57.348 33.3728 57.0244L33.8228 56.9123L33.3728 56.798Z" fill="#FFD03D"/>
</svg>
