<svg width="120" height="120" viewBox="0 0 120 120" fill="none" xmlns="http://www.w3.org/2000/svg">
<path d="M59.9998 9.59271C32.1612 9.59271 9.59277 32.1614 9.59277 60.0007C9.59277 87.8381 32.1612 110.407 59.9998 110.407C87.8384 110.407 110.407 87.8381 110.407 60.0007C110.407 32.1614 87.8384 9.59271 59.9998 9.59271V9.59271Z" fill="#EDF3FC"/>
<path d="M59.9998 0.234375C27.045 0.234375 0.234375 27.0452 0.234375 60.0007C0.234375 92.9545 27.045 119.766 59.9998 119.766C92.9548 119.766 119.766 92.9545 119.766 60.0007C119.766 27.0452 92.9548 0.234375 59.9998 0.234375ZM59.9998 117.85C28.1006 117.85 2.14898 91.8984 2.14898 60.0007C2.14898 28.1009 28.1006 2.14922 59.9998 2.14922C91.8989 2.14922 117.851 28.1011 117.851 60.0007C117.851 91.8987 91.8989 117.85 59.9998 117.85V117.85Z" fill="#EDF3FC"/>
<path d="M24.5129 56.943C23.3248 56.6455 22.2399 56.0309 21.3739 55.1648C20.5079 54.2988 19.8933 53.2139 19.5957 52.0258L19.4918 51.6133L19.3883 52.0258C19.0907 53.2139 18.476 54.2989 17.61 55.1649C16.7439 56.0309 15.6589 56.6455 14.4708 56.943L14.0579 57.0473L14.4708 57.1507C15.6589 57.4482 16.7439 58.0628 17.61 58.9288C18.476 59.7948 19.0907 60.8798 19.3883 62.0679L19.4918 62.4813L19.5957 62.0679C19.8933 60.8799 20.5079 59.7949 21.3739 58.9289C22.2399 58.0629 23.3248 57.4483 24.5129 57.1507L24.9265 57.0473L24.5129 56.943Z" fill="#FFD03D"/>
<path d="M58.9959 77.3246C58.048 77.087 57.1824 76.5965 56.4914 75.9055C55.8004 75.2146 55.3099 74.349 55.0722 73.4011L54.99 73.0716L54.9068 73.4011C54.6692 74.3491 54.1788 75.2147 53.4877 75.9057C52.7967 76.5967 51.931 77.0871 50.9831 77.3246L50.6538 77.408L50.9831 77.4912C51.931 77.7283 52.7967 78.2184 53.4877 78.9092C54.1788 79.6 54.6693 80.4654 54.9068 81.4132L54.99 81.7432L55.0722 81.4132C55.3099 80.4655 55.8004 79.6001 56.4914 78.9093C57.1825 78.2186 58.0481 77.7284 58.9959 77.4912L59.3257 77.408L58.9959 77.3246Z" fill="#00182E"/>
<path d="M97.432 58.4749C96.6433 58.2774 95.9231 57.8695 95.3482 57.2947C94.7732 56.7199 94.3651 55.9998 94.1674 55.2112L94.0989 54.937L94.0296 55.2112C93.832 55.9999 93.4239 56.72 92.8489 57.2949C92.2739 57.8697 91.5537 58.2775 90.765 58.4749L90.4912 58.5443L90.765 58.6139C91.5538 58.8112 92.2742 59.2192 92.8492 59.7941C93.4242 60.3691 93.8321 61.0894 94.0296 61.8783L94.0989 62.1525L94.1674 61.8783C94.365 61.0895 94.773 60.3693 95.348 59.7943C95.9229 59.2194 96.6432 58.8114 97.432 58.6139L97.7064 58.5443L97.432 58.4749V58.4749Z" fill="#FFD03D"/>
<path d="M104.936 65.0156C103.944 64.767 103.038 64.2537 102.314 63.5305C101.591 62.8072 101.077 61.9011 100.828 60.9089L100.742 60.5639L100.655 60.9089C100.406 61.9013 99.893 62.8075 99.1695 63.5308C98.446 64.2541 97.5396 64.7673 96.5472 65.0156L96.2026 65.1028L96.5472 65.1905C97.5397 65.4388 98.4462 65.952 99.1697 66.6755C99.8933 67.3989 100.407 68.3053 100.655 69.2979L100.742 69.6429L100.828 69.2979C101.077 68.3054 101.59 67.3992 102.314 66.6758C103.037 65.9524 103.944 65.439 104.936 65.1905L105.281 65.1028L104.936 65.0156Z" fill="#F4434D"/>
<path d="M46.4275 25.0704H31.7608C29.9558 25.0704 28.4919 26.5336 28.4919 28.3385V57.1554C28.4919 58.9605 29.9558 60.4237 31.7608 60.4237H53.5075C55.3122 60.4237 56.7754 58.9605 56.7754 57.1554V35.418L46.4275 25.0704V25.0704Z" fill="#F4434D"/>
<path d="M46.4272 25.0704V32.1499C46.4272 33.9551 47.8907 35.418 49.6951 35.418H56.7751L46.4272 25.0704V25.0704Z" fill="#FF7D85"/>
<path d="M41.0681 30.2468H32.9287C32.6179 30.2468 32.3198 30.3703 32.1001 30.5901C31.8803 30.8098 31.7568 31.1079 31.7568 31.4187C31.7568 31.7295 31.8803 32.0276 32.1001 32.2473C32.3198 32.4671 32.6179 32.5906 32.9287 32.5906H41.0681C41.3789 32.5906 41.677 32.4671 41.8967 32.2473C42.1165 32.0276 42.24 31.7295 42.24 31.4187C42.24 31.1079 42.1165 30.8098 41.8967 30.5901C41.677 30.3703 41.3789 30.2468 41.0681 30.2468V30.2468Z" fill="white"/>
<path d="M44.1989 35.1309H32.9287C32.6179 35.1309 32.3198 35.2544 32.1001 35.4742C31.8803 35.6939 31.7568 35.992 31.7568 36.3028C31.7568 36.6136 31.8803 36.9117 32.1001 37.1314C32.3198 37.3512 32.6179 37.4747 32.9287 37.4747H44.1989C44.5097 37.4747 44.8077 37.3512 45.0275 37.1314C45.2473 36.9117 45.3707 36.6136 45.3707 36.3028C45.3707 35.992 45.2473 35.6939 45.0275 35.4742C44.8077 35.2544 44.5097 35.1309 44.1989 35.1309V35.1309Z" fill="white"/>
<path d="M51.2435 40.0151H32.9287C32.6179 40.0151 32.3198 40.1385 32.1001 40.3583C31.8803 40.5781 31.7568 40.8762 31.7568 41.187C31.7568 41.4978 31.8803 41.7958 32.1001 42.0156C32.3198 42.2354 32.6179 42.3588 32.9287 42.3588H51.2435C51.5543 42.3588 51.8523 42.2354 52.0721 42.0156C52.2919 41.7958 52.4154 41.4978 52.4154 41.187C52.4154 40.8762 52.2919 40.5781 52.0721 40.3583C51.8523 40.1385 51.5543 40.0151 51.2435 40.0151V40.0151Z" fill="white"/>
<path d="M51.2435 44.8987H32.9287C32.6179 44.8987 32.3198 45.0222 32.1001 45.242C31.8803 45.4617 31.7568 45.7598 31.7568 46.0706C31.7568 46.3814 31.8803 46.6795 32.1001 46.8993C32.3198 47.119 32.6179 47.2425 32.9287 47.2425H51.2435C51.5543 47.2425 51.8523 47.119 52.0721 46.8993C52.2919 46.6795 52.4154 46.3814 52.4154 46.0706C52.4154 45.7598 52.2919 45.4617 52.0721 45.242C51.8523 45.0222 51.5543 44.8987 51.2435 44.8987Z" fill="white"/>
<path d="M51.2435 49.7831H32.9287C32.6179 49.7831 32.3198 49.9066 32.1001 50.1264C31.8803 50.3461 31.7568 50.6442 31.7568 50.955C31.7568 51.2658 31.8803 51.5639 32.1001 51.7837C32.3198 52.0034 32.6179 52.1269 32.9287 52.1269H51.2435C51.5543 52.1269 51.8523 52.0034 52.0721 51.7837C52.2919 51.5639 52.4154 51.2658 52.4154 50.955C52.4154 50.6442 52.2919 50.3461 52.0721 50.1264C51.8523 49.9066 51.5543 49.7831 51.2435 49.7831Z" fill="white"/>
<path d="M51.2435 54.6671H32.9287C32.6179 54.6671 32.3198 54.7905 32.1001 55.0103C31.8803 55.2301 31.7568 55.5281 31.7568 55.8389C31.7568 56.1497 31.8803 56.4478 32.1001 56.6676C32.3198 56.8873 32.6179 57.0108 32.9287 57.0108H51.2435C51.5543 57.0108 51.8523 56.8873 52.0721 56.6676C52.2919 56.4478 52.4154 56.1497 52.4154 55.8389C52.4154 55.5281 52.2919 55.2301 52.0721 55.0103C51.8523 54.7905 51.5543 54.6671 51.2435 54.6671Z" fill="white"/>
<path d="M82.1965 59.7307H67.5298C65.7249 59.7307 64.261 61.1939 64.261 62.9988V91.8157C64.261 93.6209 65.7249 95.0841 67.5298 95.0841H89.2765C91.0812 95.0841 92.5444 93.6209 92.5444 91.8157V70.0786L82.1965 59.7307V59.7307Z" fill="#00182E"/>
<path d="M82.1963 59.7307V66.8103C82.1963 68.6152 83.6597 70.0786 85.4642 70.0786H92.5442L82.1963 59.7307Z" fill="#3170A7"/>
<path d="M76.8371 64.9069H68.6978C68.387 64.9069 68.0889 65.0303 67.8691 65.2501C67.6493 65.4699 67.5259 65.7679 67.5259 66.0787C67.5259 66.3895 67.6493 66.6876 67.8691 66.9074C68.0889 67.1271 68.387 67.2506 68.6978 67.2506H76.8371C77.1479 67.2506 77.446 67.1271 77.6658 66.9074C77.8855 66.6876 78.009 66.3895 78.009 66.0787C78.009 65.7679 77.8855 65.4699 77.6658 65.2501C77.446 65.0303 77.1479 64.9069 76.8371 64.9069V64.9069Z" fill="white"/>
<path d="M79.9679 69.791H68.6978C68.387 69.791 68.0889 69.9145 67.8691 70.1343C67.6493 70.354 67.5259 70.6521 67.5259 70.9629C67.5259 71.2737 67.6493 71.5718 67.8691 71.7915C68.0889 72.0113 68.387 72.1348 68.6978 72.1348H79.9679C80.2787 72.1348 80.5768 72.0113 80.7966 71.7915C81.0163 71.5718 81.1398 71.2737 81.1398 70.9629C81.1398 70.6521 81.0163 70.354 80.7966 70.1343C80.5768 69.9145 80.2787 69.791 79.9679 69.791Z" fill="white"/>
<path d="M87.0125 74.6754H68.6977C68.5425 74.6732 68.3883 74.7019 68.2442 74.7598C68.1001 74.8177 67.969 74.9037 67.8584 75.0127C67.7478 75.1217 67.66 75.2516 67.6001 75.3949C67.5401 75.5381 67.5093 75.6919 67.5093 75.8472C67.5093 76.0025 67.5401 76.1562 67.6001 76.2994C67.66 76.4427 67.7478 76.5726 67.8584 76.6816C67.969 76.7907 68.1001 76.8766 68.2442 76.9345C68.3883 76.9924 68.5425 77.0211 68.6977 77.0189H87.0125C87.1678 77.0211 87.3219 76.9924 87.466 76.9345C87.6101 76.8766 87.7412 76.7907 87.8518 76.6816C87.9624 76.5726 88.0502 76.4427 88.1101 76.2994C88.1701 76.1562 88.2009 76.0025 88.2009 75.8472C88.2009 75.6919 88.1701 75.5381 88.1101 75.3949C88.0502 75.2516 87.9624 75.1217 87.8518 75.0127C87.7412 74.9037 87.6101 74.8177 87.466 74.7598C87.3219 74.7019 87.1678 74.6732 87.0125 74.6754V74.6754Z" fill="white"/>
<path d="M87.0125 79.559H68.6978C68.387 79.559 68.0889 79.6825 67.8691 79.9023C67.6493 80.122 67.5259 80.4201 67.5259 80.7309C67.5259 81.0417 67.6493 81.3398 67.8691 81.5595C68.0889 81.7793 68.387 81.9028 68.6978 81.9028H87.0125C87.3233 81.9028 87.6214 81.7793 87.8412 81.5595C88.0609 81.3398 88.1844 81.0417 88.1844 80.7309C88.1844 80.4201 88.0609 80.122 87.8412 79.9023C87.6214 79.6825 87.3233 79.559 87.0125 79.559V79.559Z" fill="white"/>
<path d="M87.0125 84.4437H68.6978C68.387 84.4437 68.0889 84.5672 67.8691 84.787C67.6493 85.0067 67.5259 85.3048 67.5259 85.6156C67.5259 85.9264 67.6493 86.2245 67.8691 86.4442C68.0889 86.664 68.387 86.7875 68.6978 86.7875H87.0125C87.3233 86.7875 87.6214 86.664 87.8412 86.4442C88.0609 86.2245 88.1844 85.9264 88.1844 85.6156C88.1844 85.3048 88.0609 85.0067 87.8412 84.787C87.6214 84.5672 87.3233 84.4437 87.0125 84.4437V84.4437Z" fill="white"/>
<path d="M87.0125 89.3273H68.6978C68.387 89.3273 68.0889 89.4508 67.8691 89.6706C67.6493 89.8903 67.5259 90.1884 67.5259 90.4992C67.5259 90.81 67.6493 91.1081 67.8691 91.3278C68.0889 91.5476 68.387 91.6711 68.6978 91.6711H87.0125C87.3233 91.6711 87.6214 91.5476 87.8412 91.3278C88.0609 91.1081 88.1844 90.81 88.1844 90.4992C88.1844 90.1884 88.0609 89.8903 87.8412 89.6706C87.6214 89.4508 87.3233 89.3273 87.0125 89.3273V89.3273Z" fill="white"/>
<path d="M93.6027 45.3342C93.4653 45.265 93.3155 45.2235 93.1621 45.2121C93.0086 45.2008 92.8544 45.2197 92.7082 45.268C92.5621 45.3162 92.4269 45.3927 92.3103 45.4932C92.1937 45.5937 92.0981 45.7162 92.0289 45.8536L89.8274 50.2226C88.135 43.9521 84.4958 38.2878 79.4429 34.118C73.8205 29.4781 66.7023 26.9229 59.3997 26.9229C59.0889 26.9229 58.7908 27.0464 58.571 27.2661C58.3512 27.4859 58.2278 27.784 58.2278 28.0948C58.2278 28.4056 58.3512 28.7037 58.571 28.9234C58.7908 29.1432 59.0889 29.2667 59.3997 29.2667C72.6688 29.2667 84.291 38.3278 87.6156 51.0258L82.933 48.743C82.6536 48.6068 82.3315 48.5871 82.0375 48.6884C81.7436 48.7897 81.502 49.0035 81.3658 49.283C81.2295 49.5624 81.2099 49.8845 81.3112 50.1785C81.4124 50.4724 81.6263 50.714 81.9057 50.8503L89.0788 54.3471C89.3558 54.4822 89.6749 54.5027 89.9669 54.4042C90.2589 54.3058 90.5004 54.0962 90.639 53.821L94.1216 46.9088C94.1909 46.7713 94.2325 46.6216 94.244 46.468C94.2554 46.3145 94.2365 46.1602 94.1883 46.014C94.1401 45.8678 94.0636 45.7325 93.9631 45.6159C93.8626 45.4992 93.7402 45.4035 93.6027 45.3342V45.3342Z" fill="#F4434D"/>
<path d="M60.2632 88.9181C46.9941 88.9181 35.3719 79.857 32.0473 67.159L36.7299 69.4418C37.0093 69.578 37.3314 69.5977 37.6253 69.4964C37.9192 69.3951 38.1609 69.1813 38.2971 68.9018C38.4333 68.6224 38.453 68.3003 38.3517 68.0063C38.2504 67.7124 38.0366 67.4708 37.7571 67.3345L30.5841 63.8377C30.3071 63.7026 29.988 63.6821 29.696 63.7806C29.404 63.879 29.1625 64.0886 29.0238 64.3638L25.5413 71.276C25.4707 71.4136 25.4281 71.5637 25.4158 71.7179C25.4035 71.872 25.4219 72.027 25.4698 72.174C25.5177 72.321 25.5942 72.457 25.6949 72.5743C25.7956 72.6916 25.9186 72.7878 26.0566 72.8574C26.1947 72.9269 26.3451 72.9685 26.4993 72.9797C26.6535 72.9908 26.8084 72.9714 26.9551 72.9224C27.1017 72.8735 27.2372 72.796 27.3538 72.6944C27.4703 72.5929 27.5657 72.4693 27.6342 72.3307L29.8357 67.9617C31.5281 74.2324 35.1673 79.8966 40.2202 84.0664C45.8426 88.7063 52.9608 91.2614 60.2635 91.2614C60.4193 91.2645 60.5742 91.2365 60.719 91.179C60.8639 91.1215 60.9959 91.0357 61.1072 90.9266C61.2185 90.8175 61.3069 90.6873 61.3672 90.5435C61.4276 90.3998 61.4587 90.2455 61.4586 90.0897C61.4586 89.9338 61.4275 89.7795 61.3671 89.6358C61.3068 89.4921 61.2183 89.3619 61.107 89.2528C60.9957 89.1437 60.8637 89.0579 60.7188 89.0005C60.5739 88.943 60.4191 88.915 60.2632 88.9181V88.9181Z" fill="#00182E"/>
</svg>
