<svg width="120" height="120" viewBox="0 0 120 120" fill="none" xmlns="http://www.w3.org/2000/svg">
<path d="M60.002 9.59247C32.1627 9.59247 9.59497 32.1611 9.59497 60C9.59497 87.8383 32.1627 110.406 60.002 110.406C87.8394 110.406 110.407 87.8383 110.407 60C110.407 32.1611 87.8394 9.59247 60.002 9.59247Z" fill="#EDF3FC"/>
<path d="M60.0019 0.234375C27.0464 0.234375 0.234375 27.0448 0.234375 60C0.234375 92.9543 27.0464 119.766 60.0019 119.766C92.9557 119.766 119.766 92.9543 119.766 60C119.766 27.0448 92.9557 0.234375 60.0019 0.234375ZM60.0019 117.85C28.102 117.85 2.15016 91.8975 2.15016 60C2.15016 28.1006 28.1023 2.14875 60.0019 2.14875C91.8998 2.14875 117.85 28.1009 117.85 60C117.85 91.8975 91.8996 117.85 60.0019 117.85Z" fill="#EDF3FC"/>
<path d="M76.6407 64.1285C73.521 64.1285 70.9829 66.6664 70.9829 69.7857V75.5787H78.4166C78.7821 75.026 79.1359 74.4655 79.4776 73.8978C80.4997 72.1939 81.3856 70.384 82.1556 68.524C81.5804 66.0106 79.3271 64.1285 76.6407 64.1285V64.1285Z" fill="#00182E"/>
<path d="M84.936 41.7682L61.5062 30.8159C61.0352 30.5937 60.5208 30.4786 60.0001 30.4788C59.4777 30.4788 58.9719 30.5918 58.4949 30.8154L35.0638 41.7682C33.7037 42.4036 32.8578 43.8886 32.9577 45.4634C33.3807 52.0781 34.9253 64.5696 40.5217 73.8977C47.4842 85.5026 55.9189 88.6226 59.2222 89.4241C59.7308 89.5477 60.2687 89.5491 60.7796 89.4241C61.6777 89.2059 62.9577 88.8141 64.4828 88.1288V77.625C64.4828 76.4951 65.3994 75.5789 66.53 75.5789H67.6841V69.7859C67.6841 64.8476 71.7022 60.8297 76.641 60.8297C79.5043 60.8297 82.0559 62.1816 83.6968 64.2788C85.9456 57.1849 86.7545 49.9643 87.0423 45.4631C87.1424 43.8891 86.2958 42.4041 84.936 41.7682V41.7682Z" fill="#00182E"/>
<path d="M78.4165 75.5786H82.2989V69.7856C82.2989 69.3517 82.2483 68.9301 82.1555 68.5239C81.3856 70.3839 80.4996 72.1938 79.4775 73.8977C79.1358 74.4654 78.782 75.0259 78.4165 75.5786V75.5786Z" fill="#8AC9F9"/>
<path d="M86.357 38.7258L62.9282 27.7737C62.0114 27.3459 61.0121 27.1242 60.0004 27.1241C58.9888 27.124 57.9894 27.3456 57.0725 27.7732L33.6418 38.7255C31.0408 39.941 29.4193 42.7345 29.6061 45.6766C30.0489 52.5956 31.6804 65.6878 37.6426 75.6258C45.2565 88.3172 54.7164 91.7847 58.4315 92.6885C58.945 92.8111 59.4733 92.8753 59.9997 92.8753C60.527 92.8753 61.0543 92.8113 61.5693 92.6871C62.3589 92.4954 63.4089 92.1867 64.6447 91.6992C64.5372 91.4462 64.482 91.174 64.4823 90.899V88.1283C62.9572 88.8136 61.6773 89.2057 60.7792 89.4237C60.2683 89.5486 59.7304 89.5472 59.2218 89.4237C55.9185 88.6221 47.4838 85.5019 40.5212 73.8973C34.9246 64.5689 33.38 52.0774 32.9572 45.4629C32.8574 43.8881 33.7035 42.4031 35.0633 41.7677L58.4945 30.8149C58.9652 30.5929 59.4792 30.4779 59.9997 30.4783C60.5211 30.4783 61.0274 30.5913 61.5057 30.8154L84.9355 41.7677C86.2956 42.4036 87.1419 43.8886 87.0421 45.4624C86.754 49.9636 85.9452 57.1844 83.6966 64.278C84.7712 65.6483 85.4207 67.3035 85.5646 69.0389C88.9487 60.4655 90.0432 51.1444 90.3934 45.6759C90.58 42.7355 88.9586 39.9422 86.357 38.7258V38.7258Z" fill="#3170A7"/>
<path d="M54.4516 21.4202C51.4746 20.6754 49.1547 18.3532 48.4043 15.3799L48.2789 14.872L48.1526 15.3799C47.7859 16.8399 47.0297 18.1729 45.9647 19.2367C44.8997 20.3005 43.5658 21.0552 42.1054 21.4202L41.6011 21.5489L42.1054 21.678C43.566 22.0429 44.9 22.7976 45.9651 23.8616C47.0301 24.9256 47.7862 26.2588 48.1526 27.719L48.2789 28.2269L48.4043 27.719C49.1547 24.7448 51.4746 22.4212 54.4516 21.678L54.956 21.5489L54.4516 21.4202V21.4202Z" fill="#F4434D"/>
<path d="M33.7063 34.5886C32.7331 34.3448 31.8442 33.8416 31.1344 33.1326C30.4246 32.4235 29.9204 31.5352 29.6756 30.5623L29.5921 30.2238L29.508 30.5623C29.2635 31.5354 28.7595 32.4239 28.0496 33.1331C27.3397 33.8422 26.4506 34.3452 25.4772 34.5886L25.1409 34.6744L25.4772 34.7604C26.4508 35.0036 27.34 35.5067 28.0499 36.2159C28.7599 36.9251 29.2638 37.8138 29.508 38.7872L29.5921 39.1256L29.6756 38.7872C29.9202 37.8141 30.4243 36.9256 31.1341 36.2164C31.844 35.5073 32.733 35.004 33.7063 34.7604L34.0424 34.6744L33.7063 34.5886Z" fill="#00182E"/>
<path d="M98.1102 70.2534C97.1937 70.0239 96.3569 69.5497 95.6889 68.8816C95.0209 68.2135 94.5469 67.3766 94.3175 66.4601L94.2364 66.1425L94.1558 66.4601C93.9263 67.377 93.452 68.2142 92.7835 68.8824C92.115 69.5506 91.2775 70.0245 90.3605 70.2534L90.043 70.3336L90.3605 70.4142C91.2776 70.6431 92.1151 71.117 92.7836 71.7851C93.4521 72.4532 93.9264 73.2905 94.1558 74.2074L94.2364 74.5268L94.3175 74.2074C94.5468 73.2909 95.0208 72.4539 95.6888 71.7858C96.3568 71.1177 97.1937 70.6437 98.1102 70.4142L98.4305 70.3336L98.1102 70.2534Z" fill="#FFD03D"/>
<path d="M54.3142 96.9942C53.0217 96.6702 51.8414 96.0015 50.8993 95.0593C49.9571 94.1171 49.2883 92.9368 48.9644 91.6444L48.8528 91.1962L48.7398 91.6444C48.4163 92.9371 47.7477 94.1177 46.8053 95.06C45.863 96.0023 44.6823 96.6708 43.3895 96.9942L42.9414 97.1086L43.3895 97.2206C44.6822 97.5437 45.8629 98.212 46.8053 99.154C47.7476 100.096 48.4163 101.276 48.7398 102.569L48.8528 103.019L48.9644 102.569C49.2884 101.277 49.9571 100.097 50.8993 99.1547C51.8415 98.2127 53.0218 97.5443 54.3142 97.2206L54.7642 97.1086L54.3142 96.9942Z" fill="#FFD03D"/>
<path d="M64.1971 99.1901C63.3757 98.9837 62.6256 98.5585 62.0268 97.9596C61.4279 97.3608 61.0027 96.6107 60.7963 95.7893L60.7258 95.5036L60.6534 95.7893C60.4477 96.6109 60.0228 97.3612 59.424 97.9601C58.8252 98.5591 58.075 98.9842 57.2535 99.1901L56.9688 99.2616L57.2535 99.3331C58.0749 99.5385 58.8251 99.9632 59.4239 100.562C60.0228 101.161 60.4477 101.911 60.6534 102.732L60.7258 103.02L60.7963 102.732C61.0027 101.911 61.4279 101.161 62.0268 100.562C62.6257 99.9638 63.3758 99.5389 64.1971 99.3331L64.4828 99.2616L64.1971 99.1901Z" fill="#F4434D"/>
<path d="M76.641 60.8295C71.7022 60.8295 67.6841 64.8474 67.6841 69.7856V75.5787H70.9831V69.7856C70.9831 66.6663 73.5212 64.1285 76.641 64.1285C79.7612 64.1285 82.2995 66.6663 82.2995 69.7856V75.5787H85.5983V69.7856C85.5983 64.8474 81.5799 60.8295 76.641 60.8295Z" fill="#FFD03D"/>
<path d="M86.7527 75.5787H66.5302C65.3995 75.5787 64.4829 76.4948 64.4829 77.6248V90.8995C64.4829 91.1684 64.5359 91.4346 64.6388 91.683C64.7416 91.9313 64.8924 92.157 65.0826 92.3471C65.2727 92.5372 65.4984 92.688 65.7467 92.7908C65.9951 92.8937 66.2613 92.9466 66.5302 92.9466H86.7527C87.0216 92.9466 87.2877 92.8936 87.5361 92.7907C87.7844 92.6879 88.0101 92.5371 88.2001 92.347C88.3902 92.1569 88.541 91.9312 88.6438 91.6829C88.7467 91.4345 88.7996 91.1683 88.7995 90.8995V77.6248C88.7995 76.4948 87.8831 75.5787 86.7527 75.5787Z" fill="#F4434D"/>
<path d="M72.4946 45.1786C71.0401 43.9573 68.8696 44.1427 67.6468 45.5979L56.7814 58.5178L52.3424 54.2241C50.9783 52.9034 48.7993 52.9392 47.4765 54.3047C46.1558 55.6711 46.1917 57.8487 47.5571 59.1703L54.6489 66.0291C54.9882 66.3573 55.3915 66.6121 55.8336 66.7777C56.2756 66.9434 56.7471 67.0163 57.2185 66.9919C57.6897 66.9676 58.1508 66.8467 58.5732 66.6366C58.9956 66.4265 59.3702 66.1317 59.6738 65.7706L72.9128 50.0267C74.1362 48.5724 73.9494 46.4016 72.4946 45.1786V45.1786Z" fill="white"/>
</svg>
