<svg width="136" height="32" viewBox="0 0 136 32" fill="none" xmlns="http://www.w3.org/2000/svg">
<path d="M0.444029 27.9318C0.177612 27.7549 0 27.401 0 27.0472C0 26.428 0.532835 25.9857 1.15448 25.9857C1.5097 25.9857 1.68731 26.0741 1.86492 26.1626C3.0194 27.0472 4.17387 27.5779 5.68357 27.5779C7.19327 27.5779 7.99252 26.8703 7.99252 25.8972C7.99252 24.9242 7.45969 24.3934 4.97313 23.8627C2.13134 23.155 0.444029 22.3589 0.444029 19.7936C0.444029 17.4936 2.39776 15.9014 5.06193 15.9014C6.74924 15.9014 8.17014 16.3437 9.32461 17.1398C9.59103 17.3167 9.85745 17.5821 9.85745 18.1128C9.85745 18.7321 9.32461 19.1743 8.70297 19.1743C8.43655 19.1743 8.25894 19.0859 8.08133 18.9974C7.01566 18.2898 6.0388 17.9359 4.97313 17.9359C3.55223 17.9359 2.75298 18.6436 2.75298 19.5282C2.75298 20.5897 3.37462 21.032 5.94999 21.6512C8.79178 22.3589 10.3015 23.3319 10.3015 25.6318C10.3015 28.1972 8.34775 29.701 5.50596 29.701C3.72984 29.701 1.95373 29.0817 0.444029 27.9318Z" fill="#696969"/>
<path d="M17.0508 28.2856V17.1398C17.0508 16.4321 17.5836 15.9014 18.2941 15.9014H26.1978C26.8194 15.9014 27.2635 16.3437 27.2635 16.9629C27.2635 17.5821 26.8194 18.0244 26.1978 18.0244H19.5373V21.5627H25.3985C26.0202 21.5627 26.4642 22.005 26.4642 22.6242C26.4642 23.2435 26.0202 23.6857 25.3985 23.6857H19.5373V27.3126H26.2866C26.9082 27.3126 27.3523 27.7549 27.3523 28.3741C27.3523 28.9933 26.9082 29.4356 26.2866 29.4356H18.2941C17.5836 29.4356 17.0508 28.9933 17.0508 28.2856Z" fill="#696969"/>
<path d="M33.1245 27.9314L38.1865 16.7855C38.4529 16.1663 38.8969 15.8125 39.6073 15.8125H39.6962C40.4066 15.8125 40.8506 16.1663 41.117 16.7855L46.179 27.9314C46.2678 28.1083 46.3566 28.2852 46.3566 28.4621C46.3566 29.0813 45.9126 29.6121 45.2021 29.6121C44.6693 29.6121 44.2252 29.2583 44.0476 28.816L42.982 26.2507H36.4103L35.2559 28.816C35.0782 29.2583 34.6342 29.5236 34.1902 29.5236C33.5685 29.5236 33.1245 29.0813 33.1245 28.4621C32.9469 28.2852 33.0357 28.1083 33.1245 27.9314ZM42.0051 24.1276L39.6073 18.6432L37.2096 24.1276H42.0051Z" fill="#696969"/>
<path d="M52.7509 17.1398C52.7509 16.4321 53.2838 15.9014 53.9942 15.9014H57.724C61.9867 15.9014 64.9173 18.8205 64.9173 22.6242C64.9173 26.428 61.9867 29.3471 57.724 29.3471H53.9054C53.1949 29.3471 52.6621 28.8164 52.6621 28.1087V17.1398H52.7509ZM57.724 27.3126C60.5658 27.3126 62.4308 25.3665 62.4308 22.8012C62.4308 20.1474 60.5658 18.2013 57.724 18.2013H55.0599V27.401H57.724V27.3126Z" fill="#696969"/>
<path d="M71.666 28.2856V17.1398C71.666 16.4321 72.1989 15.9014 72.9093 15.9014H80.813C81.4347 15.9014 81.8787 16.3437 81.8787 16.9629C81.8787 17.5821 81.4347 18.0244 80.813 18.0244H74.1526V21.5627H79.925C80.5466 21.5627 80.9906 22.005 80.9906 22.6242C80.9906 23.2435 80.5466 23.6857 79.925 23.6857H74.0638V27.3126H80.813C81.4347 27.3126 81.8787 27.7549 81.8787 28.3741C81.8787 28.9933 81.4347 29.4356 80.813 29.4356H72.8205C72.1989 29.4356 71.666 28.9933 71.666 28.2856Z" fill="#696969"/>
<path d="M92.4468 28.7273L87.7401 17.67C87.6513 17.4931 87.5625 17.3161 87.5625 17.1392C87.5625 16.52 88.0953 15.9893 88.8058 15.9893C89.4274 15.9893 89.8715 16.3431 90.0491 16.8738L93.9565 26.6043L97.9528 16.7854C98.1304 16.3431 98.5744 15.9893 99.1073 15.9893C99.7289 15.9893 100.262 16.52 100.262 17.1392C100.262 17.3161 100.173 17.4931 100.173 17.67L95.3774 28.8158C95.111 29.435 94.667 29.7888 94.0453 29.7888H93.8677C93.1573 29.7004 92.7132 29.2581 92.4468 28.7273Z" fill="#696969"/>
<path d="M30.0166 2.27881H32.6811C34.0133 2.27881 34.8127 3.1634 34.8127 4.31336C34.8127 5.37487 34.0133 6.34792 32.6811 6.34792H30.8159V9.00168H30.0166V2.27881ZM32.5923 2.98648H30.8159V5.55179H32.5923C33.3916 5.55179 33.9245 5.02103 33.9245 4.31336C33.9245 3.51723 33.3916 2.98648 32.5923 2.98648Z" fill="#696969"/>
<path d="M39.9639 2.10107C41.9178 2.10107 43.3389 3.60488 43.3389 5.55097C43.3389 7.49707 42.0066 9.00087 39.9639 9.00087C38.0099 9.00087 36.5889 7.49707 36.5889 5.55097C36.6777 3.60488 38.0099 2.10107 39.9639 2.10107ZM39.9639 2.8972C38.454 2.8972 37.477 4.04717 37.477 5.63943C37.477 7.23169 38.454 8.38165 39.9639 8.38165C41.4737 8.38165 42.4507 7.23169 42.4507 5.63943C42.4507 4.04717 41.4737 2.8972 39.9639 2.8972Z" fill="#696969"/>
<path d="M49.1103 3.51682L47.6004 8.91282H46.7122L44.7583 2.18994H45.6465L47.1563 7.76285L48.6662 2.18994H49.3767L50.8866 7.76285L52.3965 2.18994H53.2846L51.5083 8.91282H50.6201L49.1103 3.51682Z" fill="#696969"/>
<path d="M55.3262 2.27881H59.767V2.98648H56.2143V5.10949H59.6781V5.81716H56.2143V8.11709H59.767V8.82477H55.3262V2.27881Z" fill="#696969"/>
<path d="M64.2956 6.25946H62.9634V8.91323H62.1641V2.27881H64.8285C66.072 2.27881 66.9601 3.07494 66.9601 4.31336C66.9601 5.55179 66.1608 6.171 65.1838 6.25946L66.9601 9.00168H65.9831L64.2956 6.25946ZM64.7397 2.98648H62.9634V5.55179H64.7397C65.5391 5.55179 66.072 5.02103 66.072 4.2249C66.072 3.51723 65.5391 2.98648 64.7397 2.98648Z" fill="#696969"/>
<path d="M69.2686 2.27881H73.7093V2.98648H70.1567V5.10949H73.6205V5.81716H70.1567V8.11709H73.7093V8.82477H69.2686V2.27881Z" fill="#696969"/>
<path d="M76.0181 2.27881H78.3273C80.4589 2.27881 81.7911 3.69415 81.7911 5.64025C81.7911 7.58634 80.4589 9.00168 78.3273 9.00168H76.0181V2.27881ZM78.3273 8.20555C79.926 8.20555 80.9029 7.05559 80.9029 5.64025C80.9029 4.2249 80.0148 2.98648 78.3273 2.98648H76.9062V8.20555H78.3273Z" fill="#696969"/>
<path d="M87.7402 2.27881H90.76C91.9146 2.27881 92.6251 2.98648 92.6251 3.95953C92.6251 4.84412 92.0922 5.37487 91.4705 5.46333C92.181 5.55179 92.8027 6.34792 92.8027 7.14405C92.8027 8.20555 92.0922 8.91323 90.8488 8.91323H87.7402V2.27881ZM90.5823 5.19795C91.3817 5.19795 91.7369 4.75566 91.7369 4.13645C91.7369 3.51723 91.2929 3.07494 90.5823 3.07494H88.5396V5.19795H90.5823ZM90.5823 8.20555C91.3817 8.20555 91.8257 7.76326 91.8257 7.05559C91.8257 6.43638 91.3817 5.90562 90.5823 5.90562H88.5396V8.20555H90.5823Z" fill="#696969"/>
<path d="M96.7099 6.08213L94.0454 2.18994H95.0224L97.154 5.286L99.2855 2.18994H100.263L97.598 6.08213V8.91282H96.7987V6.08213H96.7099Z" fill="#696969"/>
<path d="M134.985 12.8044C134.985 12.8044 134.985 12.716 134.985 12.8044C134.985 12.716 134.985 12.716 134.985 12.8044C134.985 12.716 134.985 12.716 134.985 12.716C134.985 12.716 134.896 12.716 134.896 12.6275L129.479 9.53145L113.227 0.0663442C113.05 -0.0221147 112.872 -0.0221147 112.783 0.0663442L107.366 3.16241C107.188 3.25086 107.1 3.42778 107.1 3.6047V9.79682V28.3732C107.1 28.5501 107.188 28.727 107.366 28.8155L112.783 31.9115C112.872 31.9115 112.961 32 113.05 32C113.05 32 113.05 32 113.138 32C113.227 32 113.227 32 113.316 31.9115L118.733 28.8155L134.896 19.5273C135.073 19.4388 135.162 19.2619 135.162 19.085L134.985 12.8044ZM108.076 8.91223V4.31237L112.073 6.6123L109.409 8.1161L108.076 8.91223ZM113.05 7.14306L117.49 9.70836L113.05 12.2737L111.984 11.6545L108.609 9.70836L113.05 7.14306ZM118.822 10.5045L123.262 13.0698V18.2004L118.822 15.6351V10.5045ZM117.934 15.6351L113.494 18.2004V13.0698L117.934 10.5045V15.6351ZM113.938 18.9965L118.378 16.4312L122.818 18.9965L118.378 21.5619L115.181 19.7042L113.938 18.9965ZM113.494 24.9233V19.7927L116.779 21.7388L117.845 22.358V27.4886L114.559 25.5425L113.494 24.9233ZM124.239 18.2004V13.0698L128.679 10.5045V15.6351L124.239 18.2004ZM129.567 15.1044V10.5045L133.564 12.8044L132.054 13.689L129.567 15.1044ZM113.05 0.950933L128.235 9.70836L123.795 12.2737L118.644 9.35453L115.092 7.31997L113.227 6.25847L108.521 3.6047L113.05 0.950933ZM108.076 10.5045L112.517 13.0698V18.9965V25.1887V30.5847L108.076 28.0194V10.5045ZM113.494 30.5847V25.9848L115.447 27.1348L117.401 28.2847L113.494 30.5847ZM134.008 18.7312L118.822 27.4886V22.358L123.973 19.4388L124.683 18.9965L129.301 16.3428H129.39L130.811 15.5466L134.008 13.689V18.7312Z" fill="#696969"/>
</svg>
